# xmcd CD database file
#
# Track frame offsets:
#	150
#	9553
#	20360
#	30591
#	37481
#	45549
#	59879
#	68481
#	83306
#
# Disc length: 1381 seconds
#
# Revision: 1
# Processed by: cddbd v1.5.2PL0 Copyright (c) Steve Scherf et al.
# Submitted via: CDex 1.51
#
DISCID=6c056309
DTITLE=한태주 - 오카리나 앙상블
DYEAR=2013
DGENRE=New Age
TTITLE0=산책
TTITLE1=숲속의 아침
TTITLE2=여름
TTITLE3=다람쥐
TTITLE4=둘이서
TTITLE5=달빛 이야기
TTITLE6=아침의 왈츠
TTITLE7=오카리나 환상곡
TTITLE8=회상
EXTD=YEAR: 2013
EXTT0=
EXTT1=
EXTT2=
EXTT3=
EXTT4=
EXTT5=
EXTT6=
EXTT7=
EXTT8=
PLAYORDER=
